<?xml version="1.0" encoding="UTF-8" standalone="yes"?>

<svg xmlns="http://www.w3.org/2000/svg" width="1800" height="900" xmlns:xlink="http://www.w3.org/1999/xlink">

 <rect x="0" y="0" width="1100" height="400" style="fill:rgb(240,247,255);stroke-width:0;stroke:rgb(0,0,0);" />
 <rect x="0" y="400" width="1100" height="300" style="fill:rgb(206,133,64);stroke-width:0;stroke:rgb(0,0,0);" />

	<g id="monitor">
		<rect id="hintergrund" x="20" y="230" width="320" height="188" style="fill:rgb(105,105,105);stroke-width:10;stroke:rgb(0,0,0);"/>
		<polyline points="165,420 130,490 230,490 200,420" style="fill:none;stroke:black;stroke-width:10" />
	</g>

	<!-- Bildschirm blauer Hintergrund -->
	<animate 
		xlink:href="#hintergrund" 
		begin="3s"
		dur="5s"
		attributeName="fill" 
		attributeType="XML"
		fill="freeze"
		from="rgb(105 105 105)" 
		to="blue">
	</animate> 

	<!-- C. Lecon, April 2014 -->
	<!-- Vorlage: J. David Eisenberg: "SVG Essentials", O'Reilly, 2002 -->
	<def>
		<g id="katze">
			<title>Eine Miezekatze</title>
			<desc>Eine Katze, gezeichnet mit Strichen</desc>
			
			<!-- Katzenkopf: -->
			<circle cx="70" cy="95" r="50" style="stroke: black; fill: lightgrey;" />

			<!-- Gruene Katzenaugen: -->
			<circle cx="55" cy="80" r="5" stroke="black" fill="grey">
			</circle>
			<circle cx="85" cy="80" r="5" stroke="black" fill="grey">
			</circle>

			<!-- Katzenschnurbarthaare, rechts: -->
			<g id="schnurbart">
				<line x1="75" y1="95" x2="135" y2="85" style="stroke: black;">
				</line>
				<line x1="75" y1="95" x2="135" y2="105" style="stroke: black;" />
			</g>
			
			<!-- Katzenschnurbarthaare, links (Wiederverwendung): -->
			<use xmlns:xlink="http://www.w3.org/1999/xlink"
					xlink:href="#schnurbart"
					transform="scale(-1 1) translate(-140 0)" />

			<!-- Katzenohren: -->
			<polyline points="108 62, 90 10, 70 45, 50 10, 32 62"
								style="stroke: black; fill: lightgrey;" />

			<!-- Katzenschnautze: -->
			<polyline points="35, 110, 45, 120, 95, 120, 105, 110"
								style="stroke: black; fill: none;" />

			<!-- Rote Katzennase: -->
			<!-- M: "move", L: "line", A: "arc" -->
			<path d="M 75 90 L 65 90 A 5 10 0 0 0 75 90"
						style="stroke: black; fill: grey" />

			<text x="-10" y="165" font-family="Courier" font-size="20" fill="red" font-style="italic">
				CATMAN inside
			</text>
		</g>
	</def>

	<!-- Katze -->
	<use 
		id="katze1"
		xlink:href="#katze"
		x="110"
		y="230"
		opacity="0"
	>
		<animate xlink:href="#katze1" attributeName="opacity" from="1" to="0" begin="7s"/>
	</use>


<use x="350" y="0" xlink:href="#monitor" />
<use x="700" y="0" xlink:href="#monitor" />

	<!-- Katze -->
	<use 
		id="katze2"
		xlink:href="#katze"
		x="460"
		y="230"
		opacity="0"
	>
		<animate xlink:href="#katze2" attributeName="opacity" from="1" to="0" begin="7s"/>
	</use>

<g id="clock">
 <circle cx="880" cy="110" r="80" style="fill:white;stroke-width:3; stroke:black;"/>
	

	<g id="linien">
		<line x1="880" y1="50" x2="880" y2="30" style="stroke:black;stroke-width:3" />
	</g>
	<use x="0" y="0"  transform="rotate(30 880 110)" xlink:href="#linien" />
	<use x="0" y="0"  transform="rotate(60 880 110)" xlink:href="#linien" />
	<use x="0" y="0"  transform="rotate(90 880 110)" xlink:href="#linien" />
	<use x="0" y="0"  transform="rotate(120 880 110)" xlink:href="#linien" />
	<use x="0" y="0"  transform="rotate(150 880 110)" xlink:href="#linien" />
	<use x="0" y="0"  transform="rotate(180 880 110)" xlink:href="#linien" />
	<use x="0" y="0"  transform="rotate(210 880 110)" xlink:href="#linien" />
	<use x="0" y="0"  transform="rotate(240 880 110)" xlink:href="#linien" />
	<use x="0" y="0"  transform="rotate(270 880 110)" xlink:href="#linien" />
	<use x="0" y="0"  transform="rotate(300 880 110)" xlink:href="#linien" />
	<use x="0" y="0"  transform="rotate(330 880 110)" xlink:href="#linien" />



	<g transform="translate( 880,110)">
	<line x1="0" y1="0" x2="0" y2="-72"  style="stroke:rgb(255,215,0);stroke-width:2">
	<animateTransform repeatCount="indefinite"
		attributeName="transform" type="rotate"
		from="0" to="360" begin="0" dur="60s" />
	</line>
	</g>

	<g transform="translate( 880,110)">
	<line x1="0" y1="0" x2="0" y2="-72"  style="stroke:rgb(255,215,0);stroke-width:4">
	<animateTransform repeatCount="indefinite"
		attributeName="transform" type="rotate"
		from="180" to="540" begin="0" dur="3600" />
	</line>
	</g>

	<g transform="translate( 880,110)">
	<line x1="0" y1="0" x2="0" y2="-50" style="stroke:rgb(255,215,0);stroke-width:4">
	<animateTransform repeatCount="indefinite"
		attributeName="transform" type="rotate"
		from="345" to="705" begin="0" dur="216000" />
	</line>
	</g>

	<circle cx="880" cy="110" r="8" style="fill:black;"/>

 </g>

<g id="mouse">
	<ellipse cx="535" cy="590" rx="25" ry="40"
	style="fill:black;stroke:rgb(105,105,105);stroke-width:2" />
	<polyline points="510,590 560,590" style="fill:non;stroke:rgb(105,105,105);stroke-width:2" />
	<polyline points="535,590 535,550" style="fill:non;stroke:rgb(105,105,105);stroke-width:2" />
 </g>

<g id="keyboard">
	<rect x="170" y="550" width="270" height="65" transform="rotate(5)" style="fill:rgb(0,0,0);stroke-width:5;stroke:rgb(105,105,105);" />
</g>

<g id="keyboard-detail">
 
 	<rect x="175" y="555" width="165" height="10" transform="rotate(5)" style="fill:rgb(255,255,255);stroke-width:0;stroke:rgb(105,105,105);" />
	<rect x="350" y="555" width="45" height="30" transform="rotate(5)" style="fill:rgb(255,255,255);stroke-width:0;stroke:rgb(105,105,105);" />
	<rect x="175" y="570" width="165" height="37" transform="rotate(5)" style="fill:rgb(255,255,255);stroke-width:0;stroke:rgb(105,105,105);" />
	<rect x="350" y="589" width="45" height="18" transform="rotate(5)" style="fill:rgb(255,255,255);stroke-width:0;stroke:rgb(105,105,105);" />
	<rect x="400" y="579" width="35" height="28" transform="rotate(5)" style="fill:rgb(255,255,255);stroke-width:0;stroke:rgb(105,105,105);" />

</g>

<g id="pcc" >
	<rect x="800" y="528" width="160" height="150" style="fill:rgb(0,0,0);stroke-width:8;stroke:rgb(105,105,105);" />

	<g id="luefter">

		<circle id="luefter-hintergrund" cx="880" cy="610" r="45" style="fill:dimgrey;stroke-width:5; stroke:rgb(145,145,145);"/>
		<circle cx="880" cy="610" r="10" style="fill:rgb(0,0,0) ;stroke-width:0; stroke:black" />
		

	<g id="blaetter">
		<polygon id="blatt" points="880,610 840,602 840, 618" style="fill:black;"/>
	</g>


	<use x="0" y="0" transform="rotate(90,880,610)" xlink:href="#blaetter" />
	<use x="0" y="0" transform="rotate(45,880,610)" xlink:href="#blaetter" />
	<use x="0" y="0" transform="rotate(135,880,610)" xlink:href="#blaetter" />
	<use x="0" y="0" transform="rotate(180,880,610)" xlink:href="#blaetter" />
	<use x="0" y="0" transform="rotate(225,880,610)" xlink:href="#blaetter" />
	<use x="0" y="0" transform="rotate(270,880,610)" xlink:href="#blaetter" />
	<use x="0" y="0" transform="rotate(315,880,610)" xlink:href="#blaetter" />

	<!-- Rotierende L端fter (langsam) -->
	<animateTransform 
		xlink:href="#blaetter" 
		begin="3s" 
		dur="4s" 
		attributeName="transform" 
		attributeType="XML" 
		type="rotate" 
		from="90 880 610" 
		to="450 880 610">
	</animateTransform>

	<!-- Rotiernde L端fter (schnell) -->
	<animateTransform 
		xlink:href="#blaetter" 
		begin="7s" 
		dur="60s" 
		repeatCount="indefinite"
		attributeName="transform" 
		attributeType="XML" 
		type="rotate" 
		from="450 880 610" 
		to="22050 880 610">
	</animateTransform>

	<!-- L端fter RGB -->
	<animate 
		xlink:href="#luefter-hintergrund" 
		begin="3s" 
		dur="4s" 
		repeatCount="indefinite" 
		attributeName="fill" 	
		attributeType="XML"
		values="red;yellow;green;blue;red;"> 
	</animate>
</g>
	<!-- Einschaltknopf -->
	<circle id="einschaltknopf" cx="930" cy="560" r="8" style="fill:dimgrey;stroke-width:5;">
		<!-- Einschaltknopf gr端n -->
		<set xlink:href="#einschaltknopf" begin="2s" dur="indefinite" attributeName="fill" to="green"></set>
	</circle>
</g>


</svg>