<?xml version="1.0" standalone="no"?>

<svg xmlns="http://www.w3.org/2000/svg" width="1000" height="700" xmlns:xlink="http://www.w3.org/1999/xlink">

 
 <rect x="0" y="0" width="1000" height="400" style="fill:rgb(240,247,255);stroke-width:0;stroke:rgb(0,0,0);" />
 <rect x="0" y="400" width="1000" height="300" style="fill:rgb(206,133,64);stroke-width:0;stroke:rgb(0,0,0);" />
 
 <g id="monitor">
 
 <rect x="20" y="230" width="320" height="188" style="fill:rgb(105,105,105);stroke-width:10;stroke:rgb(0,0,0);"/>
 <polyline points="165,420 130,490 230,490 200,420" style="fill:none;stroke:black;stroke-width:10" />

</g>

<use x="350" y="0" xlink:href="#monitor" />

<g id="clock">
 <circle cx="880" cy="110" r="80" style="fill:white;stroke-width:3; stroke:black;"/>
	

	<g id="linien">
		<line x1="880" y1="50" x2="880" y2="30" style="stroke:black;stroke-width:3" />
	</g>
	<use x="0" y="0"  transform="rotate(30 880 110)" xlink:href="#linien" />
	<use x="0" y="0"  transform="rotate(60 880 110)" xlink:href="#linien" />
	<use x="0" y="0"  transform="rotate(90 880 110)" xlink:href="#linien" />
	<use x="0" y="0"  transform="rotate(120 880 110)" xlink:href="#linien" />
	<use x="0" y="0"  transform="rotate(150 880 110)" xlink:href="#linien" />
	<use x="0" y="0"  transform="rotate(180 880 110)" xlink:href="#linien" />
	<use x="0" y="0"  transform="rotate(210 880 110)" xlink:href="#linien" />
	<use x="0" y="0"  transform="rotate(240 880 110)" xlink:href="#linien" />
	<use x="0" y="0"  transform="rotate(270 880 110)" xlink:href="#linien" />
	<use x="0" y="0"  transform="rotate(300 880 110)" xlink:href="#linien" />
	<use x="0" y="0"  transform="rotate(330 880 110)" xlink:href="#linien" />



	<g transform="translate( 880,110)">
	<line x1="0" y1="0" x2="0" y2="-72"  style="stroke:rgb(255,215,0);stroke-width:2">
	<animateTransform repeatCount="indefinite"
		attributeName="transform" type="rotate"
		from="0" to="360" begin="0" dur="60s" />
	</line>
	</g>

	<g transform="translate( 880,110)">
	<line x1="0" y1="0" x2="0" y2="-72"  style="stroke:rgb(255,215,0);stroke-width:4">
	<animateTransform repeatCount="indefinite"
		attributeName="transform" type="rotate"
		from="180" to="540" begin="0" dur="3600" />
	</line>
	</g>

	<g transform="translate( 880,110)">
	<line x1="0" y1="0" x2="0" y2="-50" style="stroke:rgb(255,215,0);stroke-width:4">
	<animateTransform repeatCount="indefinite"
		attributeName="transform" type="rotate"
		from="345" to="705" begin="0" dur="216000ss" />
	</line>
	</g>

	<circle cx="880" cy="110" r="8" style="fill:black;"/>

 </g>

<g id="mouse">
	<ellipse cx="535" cy="590" rx="25" ry="40"
	style="fill:black;stroke:rgb(105,105,105);stroke-width:2" />
	<polyline points="510,590 560,590" style="fill:non;stroke:rgb(105,105,105);stroke-width:2" />
	<polyline points="535,590 535,550" style="fill:non;stroke:rgb(105,105,105);stroke-width:2" />
 </g>

<g id="keyboard">
	<rect x="170" y="550" width="270" height="65" transform="rotate(5)" style="fill:rgb(0,0,0);stroke-width:5;stroke:rgb(105,105,105);" />
</g>

<g id="keyboard-detail">
 
 	<rect x="175" y="555" width="165" height="10" transform="rotate(5)" style="fill:rgb(255,255,255);stroke-width:0;stroke:rgb(105,105,105);" />
	<rect x="350" y="555" width="45" height="30" transform="rotate(5)" style="fill:rgb(255,255,255);stroke-width:0;stroke:rgb(105,105,105);" />
	<rect x="175" y="570" width="165" height="37" transform="rotate(5)" style="fill:rgb(255,255,255);stroke-width:0;stroke:rgb(105,105,105);" />
	<rect x="350" y="589" width="45" height="18" transform="rotate(5)" style="fill:rgb(255,255,255);stroke-width:0;stroke:rgb(105,105,105);" />
	<rect x="400" y="579" width="35" height="28" transform="rotate(5)" style="fill:rgb(255,255,255);stroke-width:0;stroke:rgb(105,105,105);" />

</g>

<g id="pcc" >
	<rect x="800" y="228" width="160" height="340" style="fill:rgb(0,0,0);stroke-width:8;stroke:rgb(105,105,105);" />

	<g id="luefter">
		<circle cx="880" cy="510" r="45" style="fill:dimgrey;stroke-width:5; stroke:rgb(145,145,145);"/>
		<circle cx="880" cy="510" r="10" style="fill:rgb(0,0,0) ;stroke-width:0; stroke:black" />
		

	<g id="blaetter">
		<polygon points="880,510 840,502 840,518" style="fill:black;stroke:purple;stroke-width:0" />
	</g>


	<use x="0" y="0" transform="rotate(90,878,510)" xlink:href="#blaetter" />
	<use x="0" y="0" transform="rotate(45,878,510)" xlink:href="#blaetter" />
	<use x="0" y="0" transform="rotate(135,878,510)" xlink:href="#blaetter" />
	<use x="0" y="0" transform="rotate(180,878,510)" xlink:href="#blaetter" />
	<use x="0" y="0" transform="rotate(225,878,510)" xlink:href="#blaetter" />
	<use x="0" y="0" transform="rotate(270,878,510)" xlink:href="#blaetter" />
	<use x="0" y="0" transform="rotate(315,878,510)" xlink:href="#blaetter" />

</g>

<use x="0" y="-100"  xlink:href="#luefter" />
<use x="0" y="-200"  xlink:href="#luefter" />
	<circle cx="930" cy="260" r="8" style="fill:dimgrey;stroke-width:5; stroke:rgb(105,105,105);"/>

</g>


</svg>