<?xml version="1.0" encoding="UTF-8" standalone="yes"?>

<svg xmlns="http://www.w3.org/2000/svg" width="1340" height="900" xmlns:xlink="http://www.w3.org/1999/xlink">

<!-- Hintergrund-->
 <rect x="0" y="0" width="1340" height="900" style="fill:rgb(200, 200, 200);stroke-width:0;stroke:rgb(0,0,0);" />


<!-- Fenster-->

  <rect id="window1" x="200" y="75" width="320" height="350" style="fill:rgb(151,180,201);" />
  <rect id="window2" x="540" y="75" width="320" height="350" style="fill:rgb(151,180,201);" />

<g transform="translate( 0,-20)">
	<path id="star1" d="
	M 240 245
	L 245 248
	L 244 241
	L 249 236
	L 242 235
	L 240 230
	L 237 235
	L 230 236
	L 235 241
	L 234 248
	L 240 245 " style="fill:yellow" opacity="0">

	<animate 
   xlink:href="#star1" 
   	begin= "0s;" 
   	dur="36s" 
    attributeName = "opacity"
    repeatCount="indefinite" 
	values = "0; 0; 0; 1; 0; 0;"

	/>
	</path>
	</g>


<g transform="translate( 50,-100)">
	<path id="star2" d="
	M 240 245
	L 245 248
	L 244 241
	L 249 236
	L 242 235
	L 240 230
	L 237 235
	L 230 236
	L 235 241
	L 234 248
	L 240 245 " style="fill:yellow" opacity="0">
	<animate 
   xlink:href="#star2" 
   	begin= "0s;" 
   	dur="36s" 
    attributeName = "opacity"
    repeatCount="indefinite" 
	values = "0; 0; 0; 1; 0; 0;"
	/>
	</path>
	</g>

<g transform="translate( 200,50)">
	<path id="star3" d="
	M 240 245
	L 245 248
	L 244 241
	L 249 236
	L 242 235
	L 240 230
	L 237 235
	L 230 236
	L 235 241
	L 234 248
	L 240 245 " style="fill:yellow" opacity="0">

	<animate 
   xlink:href="#star3" 
   	begin= "0s;" 
   	dur="36s" 
    attributeName = "opacity"
    repeatCount="indefinite" 
	values = "0; 0; 0; 1; 0; 0;"

	/>
	</path>
	</g>


<g transform="translate( 550,-120)">
	<path id="star4" d="
	M 240 245
	L 245 248
	L 244 241
	L 249 236
	L 242 235
	L 240 230
	L 237 235
	L 230 236
	L 235 241
	L 234 248
	L 240 245 " style="fill:yellow" opacity="0">
	<animate 
   xlink:href="#star4" 
   	begin= "0s;" 
   	dur="36s" 
    attributeName = "opacity"
    repeatCount="indefinite" 
	values = "0; 0; 0; 1; 0; 0;"
	/>
	</path>
	</g>

	<g transform="translate( 540,20)">
	<path id="star5" d="
	M 240 245
	L 245 248
	L 244 241
	L 249 236
	L 242 235
	L 240 230
	L 237 235
	L 230 236
	L 235 241
	L 234 248
	L 240 245 " style="fill:yellow" opacity="0">
	<animate 
   xlink:href="#star5" 
   	begin= "0s;" 
   	dur="36s" 
    attributeName = "opacity"
    repeatCount="indefinite" 
	values = "0; 0; 0; 1; 0; 0;"
	/>
	</path>
	</g>

	<g transform="translate( 400,-50)">
	<path id="star6" d="
	M 240 245
	L 245 248
	L 244 241
	L 249 236
	L 242 235
	L 240 230
	L 237 235
	L 230 236
	L 235 241
	L 234 248
	L 240 245 " style="fill:yellow" opacity="0">
	<animate 
   xlink:href="#star6" 
   	begin= "0s;" 
   	dur="36s" 
    attributeName = "opacity"
    repeatCount="indefinite" 
	values = "0; 0; 0; 1; 0; 0;"
	/>
	</path>
	</g>

	<g transform="translate( 340,30)">
	<path id="star7" d="
	M 240 245
	L 245 248
	L 244 241
	L 249 236
	L 242 235
	L 240 230
	L 237 235
	L 230 236
	L 235 241
	L 234 248
	L 240 245 " style="fill:yellow" opacity="0">
	<animate 
   xlink:href="#star7" 
   	begin= "0s;" 
   	dur="36s" 
    attributeName = "opacity"
    repeatCount="indefinite" 
	values = "0; 0; 0; 1; 0; 0;"
	/>
	</path>
	</g>

<g transform="translate( 530,410)">
	<circle id="moon" cx="200" cy="200" r="40" stroke="black" stroke-width="3" fill="white" >
	<animateTransform repeatCount="indefinite"
		attributeName="transform" type="rotate"
		from="0" to="360" begin="0" dur="36" />
	</circle>
	</g>

	<g transform="translate( 530,410)">
	<circle id="sun" cx="200" cy="200" r="40" stroke="black" stroke-width="3" fill="yellow" >
	<animateTransform repeatCount="indefinite"
		attributeName="transform" type="rotate"
		from="180" to="540" begin="0" dur="36" />
	</circle>
	</g>


	<g id="ballon1" transform="translate( 0,0)">
		<ellipse cx="420" cy="200" rx="30" ry="35" style="fill:purple" />
		<line x1="420" y1="235" x2="420" y2="280" style="stroke:white;stroke-width:2" />

		<animateTransform xlink:href="#ballon1"  repeatCount="indefinite"
		attributeName="transform" type="translate"
		values="0,170; 300,-1000"
		begin="0" dur="36" />
	</g>

	<g id="ballon2" transform="translate( 0,0)">
		<ellipse  cx="720" cy="150" rx="40" ry="45" style="fill:lime" />
		 <line x1="720" y1="195" x2="720" y2="260" style="stroke:white;stroke-width:2" />

		<animateTransform xlink:href="#ballon2"  repeatCount="indefinite"
		attributeName="transform" type="translate"
		values="0,370;100,-400; 300,-1000"
		begin="0" dur="36" />
	</g>

	<g id="ballon3" transform="translate( 0,0)">
		<ellipse  cx="310" cy="145" rx="40" ry="45" style="fill:yellow" />
		<line x1="310" y1="190" x2="310" y2="260" style="stroke:white;stroke-width:2" />

		<animateTransform xlink:href="#ballon3"  repeatCount="indefinite"
		attributeName="transform" type="translate"
		values="0,370;100,-1000; 100,-1000"
		begin="0" dur="36" />
	</g>


  		
	

<rect x="195" y="65" width="335" height="370" rx="1" ry="1" style="fill:none;stroke-width:20;stroke:rgb(230,230,230);" />
  <rect x="530" y="65" width="335" height="370" rx="1" ry="1" style="fill:none;stroke-width:20;stroke:rgb(230,230,230);" />

<rect x="195" y="65" width="335" height="370" rx="1" ry="1" style="fill:none;stroke-width:3;stroke:black;" />
  <rect x="530" y="65" width="335" height="370" rx="1" ry="1" style="fill:none;stroke-width:3;stroke:black;" />


  <rect x="145" y="15" width="770" height="470" style="fill:none;stroke-width:80;stroke:rgb(200, 200, 200)" />



  

<!-- Lampe-->
<ellipse cx="1200" cy="715" rx="60" ry="30"
  style="fill:rgb(50,50,50)" />
<rect x="1195" y="400" rx="5" ry="5" width="10" height="320" style="fill:rgb(25,25,25);" />
<rect x="1210" y="400" rx="5" ry="5" width="2" height="100" style="fill:rgb(25,25,25);" />
<polygon id="lampe" points="1170,370 1230,370 1270,450 1130,450" rx="5" ry="5" style="fill:rgb(250 250 250);stroke:rgb(25,25,25);stroke-width:2" />

 <!--Tisch-->
 <rect x="50" y="500" rx="1" ry="1" width="960" height="320" style="fill:rgb(45,36,28);stroke-width:10;stroke:rgb(23,18,14);" />
 <rect x="100" y="820"  width="20" height="80" style="fill:rgb(13,8,4);stroke-width:0;stroke:rgb(0,0,0);" />
 <rect x="940" y="820" width="20" height="80" style="fill:rgb(13,8,4);stroke-width:0;stroke:rgb(0,0,0);" />

	<g id="monitor">
		<rect id="hintergrund" x="20" y="330" width="320" height="188" style="fill:rgb(105,105,105);stroke-width:10;stroke:rgb(0,0,0);"/>
		<polyline points="165,520 130,590 230,590 200,520" style="fill:none;stroke:black;stroke-width:10" />
	</g>


	

<!--Window animation -->
<animate 
		xlink:href="#window1" 
		begin="0s"
		dur="36s"
		attributeName="fill" 
		attributeType="XML"
		values="rgb(0,68,127);rgb(0,136,255);black;rgb(0,68,127);"
		repeatCount="indefinite" >
	</animate> 
	<animate 
		xlink:href="#window2" 
		begin="0s"
		dur="36s"
		attributeName="fill" 
		attributeType="XML"
		values="rgb(0,68,127);rgb(0,136,255);black;rgb(0,68,127);"
		repeatCount="indefinite" >
	</animate> 

<!--Lampe animation-->
<animate 
		xlink:href="#lampe" 
		begin="0s"
		dur="36s"
		attributeName="fill" 
		attributeType="XML"
		values="white; white; white;white; white;yellow; yellow;yellow; yellow;yellow;white;"
		repeatCount="indefinite">
	</animate> 



	<!--Bildschirm blauer Hintergrund -->
	<animate 
		xlink:href="#hintergrund" 
		begin="3s"
		dur="5s"
		attributeName="fill" 
		attributeType="XML"
		fill="freeze"
		from="rgb(105 105 105)" 
		to="blue">
		
	</animate> 


<use x="350" y="0" xlink:href="#monitor"/>
<use x="700" y="0" xlink:href="#monitor" />

<g id="clock" transform="translate(0,50)">
 <circle cx="1190" cy="110" r="80" style="fill:white;stroke-width:3; stroke:black;"/>
	

	<g id="linien">
		<line x1="1190" y1="50" x2="1190" y2="30" style="stroke:black;stroke-width:3" />
	</g>
	<use x="0" y="0"  transform="rotate(30 1190 110)" xlink:href="#linien" />
	<use x="0" y="0"  transform="rotate(60 1190 110)" xlink:href="#linien" />
	<use x="0" y="0"  transform="rotate(90 1190 110)" xlink:href="#linien" />
	<use x="0" y="0"  transform="rotate(120 1190 110)" xlink:href="#linien" />
	<use x="0" y="0"  transform="rotate(150 1190 110)" xlink:href="#linien" />
	<use x="0" y="0"  transform="rotate(180 1190 110)" xlink:href="#linien" />
	<use x="0" y="0"  transform="rotate(210 1190 110)" xlink:href="#linien" />
	<use x="0" y="0"  transform="rotate(240 1190 110)" xlink:href="#linien" />
	<use x="0" y="0"  transform="rotate(270 1190 110)" xlink:href="#linien" />
	<use x="0" y="0"  transform="rotate(300 1190 110)" xlink:href="#linien" />
	<use x="0" y="0"  transform="rotate(330 1190 110)" xlink:href="#linien" />


	<g transform="translate( 1190,110)">
	<line x1="0" y1="0" x2="0" y2="-72"  style="stroke:rgb(255,215,0);stroke-width:4">
	<animateTransform repeatCount="indefinite"
		attributeName="transform" type="rotate"
		from="180" to="540" begin="0" dur="1.5" />
	</line>
	</g>

	<g transform="translate( 1190,110)">
	<line x1="0" y1="0" x2="0" y2="-50" style="stroke:rgb(255,215,0);stroke-width:4">
	<animateTransform repeatCount="indefinite"
		attributeName="transform" type="rotate"
		from="345" to="705" begin="0" dur="18" />
	</line>
	</g>

	<circle cx="1190" cy="110" r="8" style="fill:black;"/>

 </g>

<g id="mouse">
	<ellipse cx="635" cy="690" rx="25" ry="40"
	style="fill:black;stroke:rgb(105,105,105);stroke-width:2" />
	<polyline points="610,690 660,690" style="fill:non;stroke:rgb(105,105,105);stroke-width:2" />
	<polyline points="635,690 635,650" style="fill:non;stroke:rgb(105,105,105);stroke-width:2" />
 </g>

<g id="keyboard">
	<rect x="270" y="650" width="270" height="65" transform="rotate(5)" style="fill:rgb(0,0,0);stroke-width:5;stroke:rgb(105,105,105);" />
</g>

<g id="keyboard-detail">
 
 	<rect x="275" y="655" width="165" height="10" transform="rotate(5)" style="fill:rgb(255,255,255);stroke-width:0;stroke:rgb(105,105,105);" />
	<rect x="450" y="655" width="45" height="30" transform="rotate(5)" style="fill:rgb(255,255,255);stroke-width:0;stroke:rgb(105,105,105);" />
	<rect x="275" y="670" width="165" height="37" transform="rotate(5)" style="fill:rgb(255,255,255);stroke-width:0;stroke:rgb(105,105,105);" />
	<rect x="450" y="689" width="45" height="18" transform="rotate(5)" style="fill:rgb(255,255,255);stroke-width:0;stroke:rgb(105,105,105);" />
	<rect x="500" y="679" width="35" height="28" transform="rotate(5)" style="fill:rgb(255,255,255);stroke-width:0;stroke:rgb(105,105,105);" />

</g>

<g id="pcc" >
	<rect x="800" y="628" width="160" height="150" style="fill:rgb(0,0,0);stroke-width:8;stroke:rgb(105,105,105);" />

	<g id="luefter">

		<circle id="luefter-hintergrund" cx="880" cy="710" r="45" style="fill:dimgrey;stroke-width:5; stroke:rgb(145,145,145);"/>
		<circle cx="880" cy="710" r="10" style="fill:rgb(0,0,0) ;stroke-width:0; stroke:black" />
		

	<g id="blaetter">
		<polygon id="blatt" points="880,710 840,702 840,718" style="fill:black;"/>
	</g>


	<use x="0" y="0" transform="rotate(90,880,710)" xlink:href="#blaetter" />
	<use x="0" y="0" transform="rotate(45,880,710)" xlink:href="#blaetter" />
	<use x="0" y="0" transform="rotate(135,880,710)" xlink:href="#blaetter" />
	<use x="0" y="0" transform="rotate(180,880,710)" xlink:href="#blaetter" />
	<use x="0" y="0" transform="rotate(225,880,710)" xlink:href="#blaetter" />
	<use x="0" y="0" transform="rotate(270,880,710)" xlink:href="#blaetter" />
	<use x="0" y="0" transform="rotate(315,880,710)" xlink:href="#blaetter" />

	<!-- Rotierende L端fter (langsam) -->
	<animateTransform 
		xlink:href="#blaetter" 
		begin="3s" 
		dur="4s" 
		attributeName="transform" 
		attributeType="XML" 
		type="rotate" 
		from="90 880 710" 
		to="450 880 710">
	</animateTransform>

	<!-- Rotiernde L端fter (schnell) -->
	<animateTransform 
		xlink:href="#blaetter" 
		begin="7s" 
		dur="60s" 
		repeatCount="indefinite"
		attributeName="transform" 
		attributeType="XML" 
		type="rotate" 
		from="450 880 710" 
		to="22050 880 710">
	</animateTransform>

	<!-- L端fter RGB -->
	<animate 
		xlink:href="#luefter-hintergrund" 
		begin="3s" 
		dur="4s" 
		repeatCount="indefinite" 
		attributeName="fill" 	
		attributeType="XML"
		values="red;yellow;green;blue;red;"> 
	</animate>
</g>
	<!-- Einschaltknopf -->
	<circle id="einschaltknopf" cx="930" cy="660" r="8" style="fill:dimgrey;stroke-width:5;">
		<!-- Einschaltknopf gr端n -->
		<set xlink:href="#einschaltknopf" begin="2s" dur="indefinite" attributeName="fill" to="green"></set>
	</circle>
</g>


</svg>
